<mxfile host="app.diagrams.net" modified="2024-07-08T10:00:20.840Z" agent="Mozilla/5.0 (Macintosh; Intel Mac OS X 10_15_7) AppleWebKit/605.1.15 (KHTML, like Gecko) Version/17.5 Safari/605.1.15" etag="e5nGpMa3iF1oiEbznP_p" version="24.6.4" type="github">
  <diagram id="C5RBs43oDa-KdzZeNtuy" name="Page-1">
    <mxGraphModel dx="1648" dy="827" grid="1" gridSize="10" guides="1" tooltips="1" connect="1" arrows="1" fold="1" page="1" pageScale="1" pageWidth="827" pageHeight="1169" math="0" shadow="0">
      <root>
        <mxCell id="WIyWlLk6GJQsqaUBKTNV-0" />
        <mxCell id="WIyWlLk6GJQsqaUBKTNV-1" parent="WIyWlLk6GJQsqaUBKTNV-0" />
        <mxCell id="rImVIpzInv24o1XHjGH8-17" style="edgeStyle=orthogonalEdgeStyle;rounded=0;orthogonalLoop=1;jettySize=auto;html=1;exitX=0.5;exitY=1;exitDx=0;exitDy=0;" edge="1" parent="WIyWlLk6GJQsqaUBKTNV-1" source="WIyWlLk6GJQsqaUBKTNV-3" target="rImVIpzInv24o1XHjGH8-0">
          <mxGeometry relative="1" as="geometry" />
        </mxCell>
        <mxCell id="WIyWlLk6GJQsqaUBKTNV-3" value="用户登录" style="rounded=1;whiteSpace=wrap;html=1;fontSize=12;glass=0;strokeWidth=1;shadow=0;" parent="WIyWlLk6GJQsqaUBKTNV-1" vertex="1">
          <mxGeometry x="48" y="40" width="120" height="40" as="geometry" />
        </mxCell>
        <mxCell id="rImVIpzInv24o1XHjGH8-3" style="edgeStyle=orthogonalEdgeStyle;rounded=0;orthogonalLoop=1;jettySize=auto;html=1;exitX=0.5;exitY=1;exitDx=0;exitDy=0;entryX=0.5;entryY=0;entryDx=0;entryDy=0;" edge="1" parent="WIyWlLk6GJQsqaUBKTNV-1" source="rImVIpzInv24o1XHjGH8-0" target="rImVIpzInv24o1XHjGH8-4">
          <mxGeometry relative="1" as="geometry">
            <mxPoint x="107.5" y="230" as="targetPoint" />
            <Array as="points">
              <mxPoint x="108" y="205" />
            </Array>
          </mxGeometry>
        </mxCell>
        <mxCell id="rImVIpzInv24o1XHjGH8-0" value="输入用户名&lt;div&gt;输入密码&lt;/div&gt;" style="shape=parallelogram;perimeter=parallelogramPerimeter;whiteSpace=wrap;html=1;fixedSize=1;" vertex="1" parent="WIyWlLk6GJQsqaUBKTNV-1">
          <mxGeometry x="48" y="130" width="120" height="50" as="geometry" />
        </mxCell>
        <mxCell id="rImVIpzInv24o1XHjGH8-10" style="edgeStyle=orthogonalEdgeStyle;rounded=0;orthogonalLoop=1;jettySize=auto;html=1;exitX=0.5;exitY=1;exitDx=0;exitDy=0;" edge="1" parent="WIyWlLk6GJQsqaUBKTNV-1" source="rImVIpzInv24o1XHjGH8-4" target="rImVIpzInv24o1XHjGH8-9">
          <mxGeometry relative="1" as="geometry" />
        </mxCell>
        <mxCell id="rImVIpzInv24o1XHjGH8-11" style="edgeStyle=orthogonalEdgeStyle;rounded=0;orthogonalLoop=1;jettySize=auto;html=1;exitX=1;exitY=0.5;exitDx=0;exitDy=0;entryX=1;entryY=0.5;entryDx=0;entryDy=0;" edge="1" parent="WIyWlLk6GJQsqaUBKTNV-1" source="rImVIpzInv24o1XHjGH8-4" target="WIyWlLk6GJQsqaUBKTNV-3">
          <mxGeometry relative="1" as="geometry">
            <mxPoint x="233" y="281.5" as="targetPoint" />
            <Array as="points">
              <mxPoint x="240" y="253" />
              <mxPoint x="240" y="60" />
            </Array>
          </mxGeometry>
        </mxCell>
        <mxCell id="rImVIpzInv24o1XHjGH8-4" value="服务器检查用户密码&lt;div&gt;是否匹配&lt;/div&gt;" style="rhombus;whiteSpace=wrap;html=1;" vertex="1" parent="WIyWlLk6GJQsqaUBKTNV-1">
          <mxGeometry x="30" y="222.5" width="155" height="60" as="geometry" />
        </mxCell>
        <mxCell id="rImVIpzInv24o1XHjGH8-9" value="登陆成功" style="rounded=1;whiteSpace=wrap;html=1;" vertex="1" parent="WIyWlLk6GJQsqaUBKTNV-1">
          <mxGeometry x="58" y="327.5" width="100" height="50" as="geometry" />
        </mxCell>
        <mxCell id="rImVIpzInv24o1XHjGH8-15" value="是" style="text;html=1;align=center;verticalAlign=middle;resizable=0;points=[];autosize=1;strokeColor=none;fillColor=none;" vertex="1" parent="WIyWlLk6GJQsqaUBKTNV-1">
          <mxGeometry x="73.5" y="287.5" width="40" height="30" as="geometry" />
        </mxCell>
        <mxCell id="rImVIpzInv24o1XHjGH8-16" value="否" style="text;html=1;align=center;verticalAlign=middle;resizable=0;points=[];autosize=1;strokeColor=none;fillColor=none;" vertex="1" parent="WIyWlLk6GJQsqaUBKTNV-1">
          <mxGeometry x="190" y="231.25" width="40" height="30" as="geometry" />
        </mxCell>
        <mxCell id="rImVIpzInv24o1XHjGH8-18" style="edgeStyle=orthogonalEdgeStyle;rounded=0;orthogonalLoop=1;jettySize=auto;html=1;exitX=0.5;exitY=1;exitDx=0;exitDy=0;" edge="1" parent="WIyWlLk6GJQsqaUBKTNV-1" source="rImVIpzInv24o1XHjGH8-19" target="rImVIpzInv24o1XHjGH8-21">
          <mxGeometry relative="1" as="geometry" />
        </mxCell>
        <mxCell id="rImVIpzInv24o1XHjGH8-19" value="用户注册" style="rounded=1;whiteSpace=wrap;html=1;fontSize=12;glass=0;strokeWidth=1;shadow=0;" vertex="1" parent="WIyWlLk6GJQsqaUBKTNV-1">
          <mxGeometry x="343.75" y="30" width="120" height="40" as="geometry" />
        </mxCell>
        <mxCell id="rImVIpzInv24o1XHjGH8-42" style="edgeStyle=orthogonalEdgeStyle;rounded=0;orthogonalLoop=1;jettySize=auto;html=1;exitX=0.5;exitY=1;exitDx=0;exitDy=0;entryX=0.5;entryY=0;entryDx=0;entryDy=0;" edge="1" parent="WIyWlLk6GJQsqaUBKTNV-1" source="rImVIpzInv24o1XHjGH8-21" target="rImVIpzInv24o1XHjGH8-37">
          <mxGeometry relative="1" as="geometry" />
        </mxCell>
        <mxCell id="rImVIpzInv24o1XHjGH8-21" value="输入用户名" style="shape=parallelogram;perimeter=parallelogramPerimeter;whiteSpace=wrap;html=1;fixedSize=1;" vertex="1" parent="WIyWlLk6GJQsqaUBKTNV-1">
          <mxGeometry x="343.75" y="120" width="120" height="50" as="geometry" />
        </mxCell>
        <mxCell id="rImVIpzInv24o1XHjGH8-46" style="edgeStyle=orthogonalEdgeStyle;rounded=0;orthogonalLoop=1;jettySize=auto;html=1;exitX=0.5;exitY=1;exitDx=0;exitDy=0;entryX=0.5;entryY=0;entryDx=0;entryDy=0;" edge="1" parent="WIyWlLk6GJQsqaUBKTNV-1" source="rImVIpzInv24o1XHjGH8-35" target="rImVIpzInv24o1XHjGH8-45">
          <mxGeometry relative="1" as="geometry" />
        </mxCell>
        <mxCell id="rImVIpzInv24o1XHjGH8-35" value="输入密码" style="shape=parallelogram;perimeter=parallelogramPerimeter;whiteSpace=wrap;html=1;fixedSize=1;" vertex="1" parent="WIyWlLk6GJQsqaUBKTNV-1">
          <mxGeometry x="335.25" y="327" width="137" height="40" as="geometry" />
        </mxCell>
        <mxCell id="rImVIpzInv24o1XHjGH8-39" style="edgeStyle=orthogonalEdgeStyle;rounded=0;orthogonalLoop=1;jettySize=auto;html=1;exitX=1;exitY=0.5;exitDx=0;exitDy=0;entryX=1;entryY=0.5;entryDx=0;entryDy=0;" edge="1" parent="WIyWlLk6GJQsqaUBKTNV-1" source="rImVIpzInv24o1XHjGH8-37" target="rImVIpzInv24o1XHjGH8-21">
          <mxGeometry relative="1" as="geometry">
            <mxPoint x="465.75" y="140" as="targetPoint" />
            <Array as="points">
              <mxPoint x="564.75" y="246" />
              <mxPoint x="564.75" y="145" />
            </Array>
          </mxGeometry>
        </mxCell>
        <mxCell id="rImVIpzInv24o1XHjGH8-44" style="edgeStyle=orthogonalEdgeStyle;rounded=0;orthogonalLoop=1;jettySize=auto;html=1;exitX=0.5;exitY=1;exitDx=0;exitDy=0;entryX=0.5;entryY=0;entryDx=0;entryDy=0;" edge="1" parent="WIyWlLk6GJQsqaUBKTNV-1" source="rImVIpzInv24o1XHjGH8-37" target="rImVIpzInv24o1XHjGH8-35">
          <mxGeometry relative="1" as="geometry" />
        </mxCell>
        <mxCell id="rImVIpzInv24o1XHjGH8-37" value="服务器检查用户名&lt;div&gt;是否重复&lt;/div&gt;" style="rhombus;whiteSpace=wrap;html=1;" vertex="1" parent="WIyWlLk6GJQsqaUBKTNV-1">
          <mxGeometry x="330" y="210" width="147.5" height="72.5" as="geometry" />
        </mxCell>
        <mxCell id="rImVIpzInv24o1XHjGH8-41" value="否" style="text;html=1;align=center;verticalAlign=middle;resizable=0;points=[];autosize=1;strokeColor=none;fillColor=none;" vertex="1" parent="WIyWlLk6GJQsqaUBKTNV-1">
          <mxGeometry x="556.25" y="180" width="40" height="30" as="geometry" />
        </mxCell>
        <mxCell id="rImVIpzInv24o1XHjGH8-43" value="是" style="text;html=1;align=center;verticalAlign=middle;resizable=0;points=[];autosize=1;strokeColor=none;fillColor=none;" vertex="1" parent="WIyWlLk6GJQsqaUBKTNV-1">
          <mxGeometry x="393.25" y="287.5" width="40" height="30" as="geometry" />
        </mxCell>
        <mxCell id="rImVIpzInv24o1XHjGH8-47" style="edgeStyle=orthogonalEdgeStyle;rounded=0;orthogonalLoop=1;jettySize=auto;html=1;exitX=1;exitY=0.5;exitDx=0;exitDy=0;entryX=1;entryY=0.5;entryDx=0;entryDy=0;" edge="1" parent="WIyWlLk6GJQsqaUBKTNV-1" source="rImVIpzInv24o1XHjGH8-45" target="rImVIpzInv24o1XHjGH8-35">
          <mxGeometry relative="1" as="geometry">
            <mxPoint x="565.75" y="340" as="targetPoint" />
            <Array as="points">
              <mxPoint x="477.75" y="450" />
              <mxPoint x="566.75" y="450" />
              <mxPoint x="566.75" y="347" />
            </Array>
          </mxGeometry>
        </mxCell>
        <mxCell id="rImVIpzInv24o1XHjGH8-52" style="edgeStyle=orthogonalEdgeStyle;rounded=0;orthogonalLoop=1;jettySize=auto;html=1;exitX=0.5;exitY=1;exitDx=0;exitDy=0;entryX=0.5;entryY=0;entryDx=0;entryDy=0;" edge="1" parent="WIyWlLk6GJQsqaUBKTNV-1" source="rImVIpzInv24o1XHjGH8-45" target="rImVIpzInv24o1XHjGH8-51">
          <mxGeometry relative="1" as="geometry" />
        </mxCell>
        <mxCell id="rImVIpzInv24o1XHjGH8-45" value="客户端检查密码复杂度&lt;div&gt;两次输入是否一致&lt;/div&gt;" style="rhombus;whiteSpace=wrap;html=1;" vertex="1" parent="WIyWlLk6GJQsqaUBKTNV-1">
          <mxGeometry x="320" y="405" width="167.5" height="88" as="geometry" />
        </mxCell>
        <mxCell id="rImVIpzInv24o1XHjGH8-49" value="否" style="text;html=1;align=center;verticalAlign=middle;resizable=0;points=[];autosize=1;strokeColor=none;fillColor=none;" vertex="1" parent="WIyWlLk6GJQsqaUBKTNV-1">
          <mxGeometry x="561.25" y="375" width="40" height="30" as="geometry" />
        </mxCell>
        <mxCell id="rImVIpzInv24o1XHjGH8-50" value="是" style="text;html=1;align=center;verticalAlign=middle;resizable=0;points=[];autosize=1;strokeColor=none;fillColor=none;" vertex="1" parent="WIyWlLk6GJQsqaUBKTNV-1">
          <mxGeometry x="393.25" y="484.5" width="40" height="30" as="geometry" />
        </mxCell>
        <mxCell id="rImVIpzInv24o1XHjGH8-54" style="edgeStyle=orthogonalEdgeStyle;rounded=0;orthogonalLoop=1;jettySize=auto;html=1;exitX=0.5;exitY=1;exitDx=0;exitDy=0;entryX=0.5;entryY=0;entryDx=0;entryDy=0;" edge="1" parent="WIyWlLk6GJQsqaUBKTNV-1" source="rImVIpzInv24o1XHjGH8-51" target="rImVIpzInv24o1XHjGH8-53">
          <mxGeometry relative="1" as="geometry" />
        </mxCell>
        <mxCell id="rImVIpzInv24o1XHjGH8-51" value="提交数据到服务器保存" style="rounded=0;whiteSpace=wrap;html=1;" vertex="1" parent="WIyWlLk6GJQsqaUBKTNV-1">
          <mxGeometry x="336" y="527" width="136.25" height="30" as="geometry" />
        </mxCell>
        <mxCell id="rImVIpzInv24o1XHjGH8-53" value="自动登录&lt;div&gt;完成注册&lt;/div&gt;" style="rounded=1;whiteSpace=wrap;html=1;" vertex="1" parent="WIyWlLk6GJQsqaUBKTNV-1">
          <mxGeometry x="344.13" y="585" width="120" height="45" as="geometry" />
        </mxCell>
      </root>
    </mxGraphModel>
  </diagram>
</mxfile>
